<svg id="Logo" xmlns="http://www.w3.org/2000/svg" width="1824.8278" height="477.7612" viewBox="0 0 1824.8278 477.7612"><defs><style>.cls-1{fill:#282827;}.cls-2{fill:#f15d28;}.cls-3{fill:#fff;}</style></defs><title>magedin</title><g id="Logo-2" data-name="Logo"><path class="cls-1" d="M310.6309,392.2379,290.2866,125.9488,182.2339,394.0465H157.82L49.3159,125.9488,28.9712,392.2379H.0366L24.9023,80.2867H63.3311L170.479,352.4527,278.08,80.2867h37.9766l24.8657,311.9512Z"/><path class="cls-1" d="M540.7549,392.2379l-4.9731-28.4824c-19.8926,18.5361-44.7583,33.0029-75.5015,33.0029-37.0723,0-63.7461-20.3447-63.7461-58.3213,0-50.1826,40.689-73.6924,137.439-83.1865V241.2349c0-28.9346-17.18-41.1411-44.3062-41.1411-25.3174,0-50.1831,7.6855-73.6924,18.9883l-4.0693-26.6743c24.8657-10.85,49.2793-18.5361,79.57-18.5361,47.4707,0,71.8843,22.1533,71.8843,66.0078V392.2379ZM533.9731,278.76c-84.0908,8.59-107.6006,28.9346-107.6006,57.8691,0,23.0566,15.8237,34.8115,38.4287,34.8115,23.0576,0,48.375-12.6592,69.1719-32.1Z"/><path class="cls-1" d="M808.4014,174.776l4.9731,29.3867-42.95,4.521a67.1561,67.1561,0,0,1,11.3027,37.9771c0,45.21-37.5249,72.7881-80.0225,72.7881a83.1922,83.1922,0,0,1-18.5361-1.8086c-9.042,4.9736-14.0151,10.3984-14.0151,15.3721,0,8.59,8.59,11.7549,47.9229,18.9883l15.8237,3.165c47.4707,8.59,73.24,22.6045,73.24,54.252,0,41.1416-46.5664,64.1982-101.7227,64.1982s-97.6543-18.5361-97.6543-55.6084c0-21.7012,16.7275-40.2373,48.8271-56.9648-10.8506-6.3291-15.8237-14.0156-15.8237-22.1533,0-11.3027,7.6855-19.8926,21.249-28.4824-23.51-11.7549-39.333-34.3594-39.333-63.7461,0-45.21,37.5244-72.7891,79.1177-72.7891,21.249,0,39.7852,6.33,54.2524,18.0845ZM636.15,416.1988c0,22.1533,28.03,34.8125,70.0757,34.8125,43.4019,0,71.4321-16.7285,71.4321-37.9766,0-16.7285-13.563-25.7705-51.54-33.0039l-20.7969-3.6172c-10.85-2.26-18.084-3.6162-25.77-5.4248C650.1655,384.5523,636.15,399.0191,636.15,416.1988Zm64.65-220.1738c-30.2905,0-49.731,22.1528-49.731,51.54,0,27.5781,19.44,49.7314,50.6353,49.7314s50.6357-21.7012,50.6357-50.6357C752.3408,218.1778,731.5439,196.025,700.8008,196.025Z"/><path class="cls-1" d="M1019.085,287.35H870.3433c.9043,52.4434,25.3179,83.6387,68.2681,83.6387,28.4824,0,53.3477-12.6592,75.501-31.6475l4.5215,27.126c-21.249,18.085-48.8271,30.291-81.8311,30.291-56.061,0-96.2979-37.9766-96.2979-111.6689,0-68.72,39.7847-111.2178,92.2285-111.2178,58.3213,0,86.3516,47.9229,86.3516,107.1484Zm-86.3516-89.5171c-33.4556,0-55.1562,24.8657-61.0337,66.0073H988.3428C985.1777,225.4117,967.0938,197.8331,932.7334,197.8331Z"/><path class="cls-1" d="M1223.4375,392.2379l-5.4258-31.1953c-16.2754,19.44-37.5244,35.7158-68.72,35.7158-47.0186,0-86.3516-33.4551-86.3516-105.34,0-78.2139,45.6631-116.19,97.6543-116.19,21.7012,0,40.6895,4.0688,55.6094,10.8506V73.0528l29.8379-5.4253v324.61Zm-7.2334-178.5811c-16.7285-8.59-32.5518-12.6587-54.7051-12.6587-38.4287,0-68.2676,28.9351-68.2676,89.064,0,51.9922,24.8662,80.0225,58.7734,80.0225,25.3184,0,45.2109-15.3711,64.1992-38.4287Z"/><g id="Brand"><rect id="Orange_Rectangle" data-name="Orange Rectangle" class="cls-2" x="1347.0666" width="477.7612" height="477.7612" rx="60.3548" ry="60.3548"/><path class="cls-3" d="M1462.4717,114.2139a22.7095,22.7095,0,1,1,0-45.4189c12.3008,0,22.2363,10.4082,22.2363,22.7095S1474.7725,114.2139,1462.4717,114.2139Zm-15.6133,277.2446V167.6759h30.7529V391.4586Z"/><path class="cls-3" d="M1699.0205,391.4586V237.2232c0-28.86-13.2471-46.3647-41.6338-46.3647-23.6562,0-47.7852,14.6665-72.3867,38.7954V391.4586h-31.2256V167.6759h24.1289l5.2041,33.1177c24.6025-21.7632,50.15-37.8491,80.43-37.8491,44.4727,0,66.709,25.5483,66.709,68.6021V391.4586Z"/></g></g></svg>